<svg width="26" height="26" viewBox="0 0 26 26" fill="none" xmlns="http://www.w3.org/2000/svg">
<path d="M22.75 22.75H18.4167V15.4375C18.4167 14.2907 17.1298 13.3313 15.983 13.3313C14.8362 13.3313 14.0833 14.2907 14.0833 15.4375V22.75H9.75001V9.75H14.0833V11.9167C14.8008 10.756 16.6361 10.007 17.9021 10.007C20.5796 10.007 22.75 12.2185 22.75 14.8958V22.75ZM7.58333 22.75H3.25V9.75H7.58333V22.75ZM5.41668 3.25C6.6133 3.25 7.58334 4.22005 7.58334 5.41667C7.58334 6.61328 6.6133 7.58333 5.41668 7.58333C4.22006 7.58333 3.25001 6.61328 3.25001 5.41667C3.25001 4.22005 4.22006 3.25 5.41668 3.25Z" fill="#2E2E2E"/>
</svg>
