<svg width="24" height="22" viewBox="0 0 24 22" fill="none" xmlns="http://www.w3.org/2000/svg">
<path d="M9.60369 21.6959V11.2873H5.14286C5.14286 9.62007 5.45827 8.22325 6.08909 7.09678C6.71992 5.92524 7.89145 5.0466 9.60369 4.46083V0C8.20686 0.180236 6.90015 0.608295 5.68356 1.28418C4.51203 1.915 3.49821 2.72606 2.64209 3.71736C1.78597 4.70865 1.11009 5.85766 0.614439 7.16436C0.163851 8.47107 -0.0389144 9.8679 0.00614437 11.3548V21.6959H9.60369ZM24 21.6959V11.2873H19.5392C19.5392 9.62007 19.8546 8.22325 20.4854 7.09678C21.1162 5.92524 22.2878 5.0466 24 4.46083V0C22.6032 0.180236 21.2965 0.608295 20.0799 1.28418C18.9083 1.915 17.8945 2.72606 17.0384 3.71736C16.1823 4.70865 15.5064 5.85766 15.0108 7.16436C14.5602 8.47107 14.3574 9.8679 14.4025 11.3548V21.6959H24Z" fill="#2667FF"/>
</svg>
