<svg width="26" height="26" viewBox="0 0 26 26" fill="none" xmlns="http://www.w3.org/2000/svg">
<path d="M24.3315 6.51341C23.4978 6.88321 22.6017 7.13312 21.6613 7.2455C22.6211 6.6701 23.3584 5.75898 23.7055 4.67326C22.8071 5.20611 21.8121 5.59301 20.7531 5.80147C19.905 4.89788 18.6968 4.33334 17.3595 4.33334C14.7919 4.33334 12.7101 6.41493 12.7101 8.98251C12.7101 9.34689 12.7513 9.70175 12.8306 10.0421C8.96652 9.84815 5.54065 7.9972 3.2476 5.18431C2.84738 5.87097 2.6181 6.66961 2.6181 7.52168C2.6181 9.13471 3.43886 10.5578 4.68642 11.3916C3.92436 11.3673 3.20738 11.1582 2.58059 10.81C2.58015 10.8294 2.58015 10.8488 2.58015 10.8684C2.58015 13.1211 4.18278 15.0002 6.30964 15.4273C5.91953 15.5336 5.50879 15.5905 5.08477 15.5905C4.78519 15.5905 4.49393 15.5612 4.21 15.5071C4.80166 17.354 6.51866 18.6983 8.55317 18.7357C6.96199 19.9828 4.9573 20.7261 2.779 20.7261C2.40372 20.7261 2.03364 20.704 1.66992 20.661C3.72745 21.9802 6.17132 22.75 8.79688 22.75C17.3486 22.75 22.0251 15.6655 22.0251 9.52161C22.0251 9.32007 22.0206 9.11956 22.0116 8.92011C22.9201 8.2646 23.7083 7.44577 24.3315 6.51341Z" fill="#2E2E2E"/>
</svg>
