<svg width="24" height="24" viewBox="0 0 24 24" fill="none" xmlns="http://www.w3.org/2000/svg">
<path fill-rule="evenodd" clip-rule="evenodd" d="M14.872 13.0415C16.5369 10.5286 16.2623 7.10959 14.0483 4.89559C11.5208 2.36814 7.42303 2.36814 4.89559 4.89559C2.36814 7.42303 2.36814 11.5208 4.89559 14.0483C7.10959 16.2623 10.5286 16.5369 13.0415 14.872L19.1695 21L21 19.1695L14.872 13.0415ZM12.2177 6.72613C13.7342 8.24259 13.7342 10.7013 12.2177 12.2177C10.7013 13.7342 8.24259 13.7342 6.72613 12.2177C5.20966 10.7013 5.20966 8.24259 6.72613 6.72613C8.24259 5.20966 10.7013 5.20966 12.2177 6.72613Z" fill="white"/>
</svg>
