<svg width="20" height="12" viewBox="0 0 20 12" fill="none" xmlns="http://www.w3.org/2000/svg">
<path d="M1.11867 1.12618C0.960443 1.29441 0.960443 1.56717 1.11867 1.7354L9.7135 10.8738C9.87173 11.0421 10.1283 11.0421 10.2865 10.8738C10.2867 10.8736 10.2863 10.874 10.2865 10.8738L18.8813 1.7354C19.0396 1.56717 19.0396 1.29441 18.8813 1.12618C18.7231 0.957942 18.4666 0.957942 18.3083 1.12618L10 9.95998L1.69166 1.12618C1.53343 0.957942 1.2769 0.957942 1.11867 1.12618Z" fill="black"/>
<path d="M10.2865 10.8738C10.1283 11.0421 9.87173 11.0421 9.7135 10.8738L1.11867 1.7354C0.960443 1.56717 0.960443 1.29441 1.11867 1.12618C1.2769 0.957942 1.53343 0.957942 1.69166 1.12618L10 9.95998L18.3083 1.12618C18.4666 0.957942 18.7231 0.957942 18.8813 1.12618C19.0396 1.29441 19.0396 1.56717 18.8813 1.7354L10.2865 10.8738ZM10.2865 10.8738C10.2863 10.874 10.2867 10.8736 10.2865 10.8738Z" stroke="black" stroke-width="0.25" stroke-linecap="round"/>
</svg>
