<svg width="40" height="38" viewBox="0 0 40 38" fill="none" xmlns="http://www.w3.org/2000/svg">
<path d="M32.4301 37.514H7.56924C6.9994 37.5135 6.45188 37.2923 6.0416 36.8969C5.63133 36.5014 5.39017 35.9624 5.36875 35.3929C5.34732 34.8235 5.5473 34.2679 5.9267 33.8427C6.3061 33.4175 6.83544 33.1558 7.40364 33.1125L14.6622 32.5516L14.8808 29.3046C14.8957 29.084 14.9976 28.8784 15.1641 28.733C15.3305 28.5876 15.548 28.5143 15.7685 28.5291C15.9891 28.544 16.1947 28.6459 16.3401 28.8124C16.4855 28.9789 16.5589 29.1963 16.544 29.4169L16.2769 33.3833C16.2636 33.5831 16.1786 33.7714 16.0377 33.9137C15.8968 34.0561 15.7094 34.1429 15.5097 34.1583L7.53015 34.775C7.39175 34.7853 7.26272 34.8488 7.17017 34.9523C7.07762 35.0557 7.02875 35.191 7.03381 35.3297C7.03886 35.4684 7.09747 35.5997 7.1973 35.6961C7.29714 35.7925 7.43045 35.8465 7.56924 35.8467H32.4301C32.5724 35.8462 32.7086 35.7892 32.8088 35.6883C32.9091 35.5874 32.9653 35.4508 32.9649 35.3086C32.9655 35.1739 32.9149 35.044 32.8233 34.9451C32.7301 34.8457 32.603 34.7848 32.4671 34.7745L24.4896 34.1583C24.29 34.1429 24.1025 34.0561 23.9616 33.9137C23.8207 33.7714 23.7358 33.5831 23.7224 33.3833L23.4554 29.4169C23.448 29.3077 23.4622 29.1981 23.4972 29.0944C23.5321 28.9906 23.5872 28.8948 23.6592 28.8124C23.7312 28.7299 23.8188 28.6625 23.9168 28.6139C24.0149 28.5653 24.1216 28.5365 24.2308 28.5291C24.3403 28.5204 24.4504 28.5337 24.5546 28.5682C24.6589 28.6027 24.7552 28.6577 24.8379 28.73C24.9207 28.8022 24.9881 28.8903 25.0363 28.9889C25.0845 29.0876 25.1124 29.1949 25.1186 29.3046L25.3372 32.5516L32.5978 33.1125C33.1657 33.1565 33.6945 33.4187 34.0734 33.844C34.4522 34.2693 34.6517 34.8247 34.63 35.3939C34.6084 35.9631 34.3672 36.5018 33.957 36.897C33.5469 37.2922 32.9997 37.5134 32.4301 37.514Z" fill="#2E2E2E"/>
<path d="M38.5407 29.9848H1.45933C1.07239 29.9843 0.70143 29.8303 0.427846 29.5567C0.154262 29.2831 0.000396323 28.9121 0 28.5251V1.45966C0.000396323 1.07271 0.154262 0.70172 0.427846 0.428077C0.70143 0.154433 1.07239 0.000480806 1.45933 0H38.5407C38.9276 0.000480806 39.2986 0.154433 39.5722 0.428077C39.8457 0.70172 39.9996 1.07271 40 1.45966V28.5251C39.9996 28.9121 39.8457 29.2831 39.5722 29.5567C39.2986 29.8303 38.9276 29.9843 38.5407 29.9848ZM1.66731 28.3175H38.3327V1.66732H1.66731V28.3175Z" fill="#2E2E2E"/>
<path d="M36.6071 26.397H3.40397C3.18287 26.397 2.97083 26.3091 2.81449 26.1528C2.65814 25.9965 2.57031 25.7844 2.57031 25.5633C2.57031 25.3422 2.65814 25.1302 2.81449 24.9738C2.97083 24.8175 3.18287 24.7297 3.40397 24.7297H36.6071C36.8282 24.7297 37.0402 24.8175 37.1965 24.9738C37.3529 25.1302 37.4407 25.3422 37.4407 25.5633C37.4407 25.7844 37.3529 25.9965 37.1965 26.1528C37.0402 26.3091 36.8282 26.397 36.6071 26.397Z" fill="#2E2E2E"/>
<path d="M20.0015 23.6315C19.8667 23.6314 19.734 23.5987 19.6147 23.5362L14.9524 21.0955C13.8873 20.554 12.9994 19.7192 12.3932 18.6895C11.7871 17.6599 11.4881 16.4784 11.5315 15.2844L11.8705 5.97102C11.8772 5.78608 11.9453 5.60863 12.0639 5.46661C12.1826 5.32459 12.3451 5.22607 12.5259 5.18659L19.8235 3.59417C19.9408 3.56899 20.0621 3.56899 20.1794 3.59417L27.477 5.18659C27.6577 5.22605 27.8202 5.32451 27.9389 5.46645C28.0575 5.60838 28.1256 5.78574 28.1324 5.9706L28.4718 15.2864C28.5121 16.4784 28.2124 17.6572 27.6075 18.6852C27.0027 19.7131 26.1178 20.5477 25.0563 21.0915L20.3882 23.5362C20.2689 23.5988 20.1362 23.6315 20.0015 23.6315ZM13.5134 6.67758L13.1975 15.3463C13.1677 16.2256 13.39 17.0951 13.8382 17.8522C14.2864 18.6093 14.9417 19.2224 15.727 19.6191L20.0015 21.8566L24.2804 19.6159C25.0628 19.2172 25.7157 18.6042 26.1628 17.8484C26.6099 17.0926 26.8328 16.2252 26.8054 15.3475L26.4895 6.67758L20.0015 5.2619L13.5134 6.67758Z" fill="#2E2E2E"/>
<path d="M19.9832 16.2421C19.7659 16.2421 19.5571 16.1573 19.4014 16.0057L16.2537 12.9405C16.0963 12.7861 16.0065 12.5755 16.004 12.3549C16.0015 12.1344 16.0865 11.9218 16.2404 11.7638C16.3943 11.6058 16.6045 11.5152 16.8251 11.5119C17.0456 11.5086 17.2585 11.5929 17.4171 11.7462L19.9457 14.2086L23.6572 10.1124C23.8056 9.94847 24.0131 9.85026 24.2339 9.83934C24.4548 9.82841 24.6709 9.90566 24.8348 10.0541C24.9987 10.2025 25.0969 10.41 25.1078 10.6308C25.1187 10.8517 25.0415 11.0678 24.893 11.2317L20.6011 15.9682C20.5258 16.0512 20.4347 16.1182 20.333 16.1652C20.2313 16.2122 20.1212 16.2383 20.0092 16.2418L19.9832 16.2421Z" fill="#2E2E2E"/>
</svg>
