<svg width="44" height="44" viewBox="0 0 44 44" fill="none" xmlns="http://www.w3.org/2000/svg">
<path d="M12.0028 27.33C11.7876 27.33 11.5812 27.2445 11.429 27.0923C11.2769 26.9401 11.1914 26.7337 11.1914 26.5185V22.7777C11.1914 22.5625 11.2769 22.3561 11.4291 22.2039C11.5813 22.0517 11.7876 21.9662 12.0028 21.9662C12.218 21.9662 12.4244 22.0517 12.5766 22.2039C12.7288 22.3561 12.8143 22.5625 12.8143 22.7777V26.5185C12.8142 26.7337 12.7287 26.9401 12.5766 27.0923C12.4244 27.2445 12.218 27.33 12.0028 27.33Z" fill="#2E2E2E"/>
<path d="M10.3827 26.3946C10.204 26.3948 10.0302 26.3359 9.88833 26.2273C9.74645 26.1186 9.6444 25.9661 9.59806 25.7935C9.55172 25.6209 9.56367 25.4378 9.63204 25.2727C9.70041 25.1075 9.8214 24.9696 9.9762 24.8802L13.2159 23.0098C13.3083 22.9553 13.4105 22.9197 13.5167 22.905C13.6229 22.8903 13.7309 22.8968 13.8346 22.9241C13.9383 22.9514 14.0355 22.9989 14.1207 23.064C14.2059 23.1291 14.2773 23.2104 14.3309 23.3032C14.3845 23.3961 14.4192 23.4986 14.4329 23.605C14.4467 23.7113 14.4392 23.8193 14.411 23.9227C14.3827 24.0261 14.3343 24.1229 14.2684 24.2075C14.2026 24.2921 14.1206 24.3628 14.0273 24.4155L10.7876 26.286C10.6645 26.3572 10.5249 26.3946 10.3827 26.3946Z" fill="#2E2E2E"/>
<path d="M13.6184 26.3946C13.4762 26.3946 13.3366 26.3572 13.2134 26.286L9.97372 24.4156C9.78939 24.3069 9.65541 24.1299 9.60095 23.923C9.54649 23.7161 9.57596 23.496 9.68292 23.3107C9.78988 23.1254 9.96567 22.9898 10.1721 22.9335C10.3785 22.8771 10.5988 22.9046 10.7851 23.0098L14.0248 24.8803C14.1796 24.9696 14.3006 25.1075 14.369 25.2727C14.4374 25.4378 14.4494 25.6209 14.403 25.7935C14.3567 25.9661 14.2547 26.1186 14.1128 26.2273C13.9709 26.336 13.7971 26.3948 13.6184 26.3946Z" fill="#2E2E2E"/>
<path d="M18.6709 27.33C18.4557 27.33 18.2493 27.2445 18.0971 27.0923C17.9449 26.9401 17.8594 26.7337 17.8594 26.5185V22.7777C17.8594 22.5625 17.9449 22.3561 18.097 22.2039C18.2492 22.0517 18.4556 21.9662 18.6708 21.9662C18.886 21.9662 19.0924 22.0517 19.2446 22.2039C19.3968 22.3561 19.4822 22.5625 19.4822 22.7777V26.5185C19.4822 26.7337 19.3968 26.9401 19.2446 27.0923C19.0925 27.2445 18.8861 27.33 18.6709 27.33Z" fill="#2E2E2E"/>
<path d="M17.0506 26.3946C16.8719 26.3948 16.6981 26.336 16.5563 26.2273C16.4144 26.1186 16.3123 25.9661 16.266 25.7935C16.2197 25.6209 16.2316 25.4378 16.3 25.2727C16.3684 25.1075 16.4894 24.9696 16.6442 24.8803L19.8844 23.0098C20.0706 22.9046 20.291 22.8771 20.4974 22.9335C20.7038 22.9898 20.8796 23.1254 20.9866 23.3107C21.0935 23.496 21.123 23.7161 21.0685 23.923C21.014 24.1299 20.8801 24.3069 20.6958 24.4156L17.4556 26.286C17.3325 26.3572 17.1928 26.3946 17.0506 26.3946Z" fill="#2E2E2E"/>
<path d="M20.2878 26.3946C20.1456 26.3946 20.006 26.3571 19.8829 26.286L16.6428 24.4155C16.5494 24.3628 16.4675 24.2921 16.4016 24.2075C16.3358 24.1229 16.2873 24.0261 16.2591 23.9227C16.2309 23.8193 16.2234 23.7113 16.2372 23.605C16.2509 23.4986 16.2856 23.3961 16.3391 23.3032C16.3927 23.2104 16.4642 23.1291 16.5494 23.064C16.6346 22.9989 16.7318 22.9514 16.8355 22.9241C16.9391 22.8968 17.0472 22.8903 17.1534 22.905C17.2596 22.9197 17.3618 22.9553 17.4542 23.0098L20.6943 24.8802C20.8491 24.9696 20.97 25.1075 21.0384 25.2727C21.1068 25.4378 21.1187 25.6209 21.0724 25.7935C21.0261 25.9661 20.924 26.1186 20.7822 26.2273C20.6403 26.3359 20.4665 26.3948 20.2878 26.3946Z" fill="#2E2E2E"/>
<path d="M25.3348 27.33C25.1196 27.33 24.9132 27.2445 24.7611 27.0923C24.6089 26.9401 24.5234 26.7337 24.5234 26.5185V22.7777C24.5234 22.5625 24.6089 22.3561 24.7611 22.2039C24.9133 22.0517 25.1197 21.9662 25.3349 21.9662C25.5501 21.9662 25.7565 22.0517 25.9086 22.2039C26.0608 22.3561 26.1463 22.5625 26.1463 22.7777V26.5185C26.1463 26.6251 26.1253 26.7306 26.0845 26.8291C26.0437 26.9275 25.984 27.017 25.9086 27.0923C25.8333 27.1677 25.7438 27.2275 25.6454 27.2682C25.5469 27.309 25.4414 27.33 25.3348 27.33Z" fill="#2E2E2E"/>
<path d="M23.7186 26.3946C23.5399 26.3948 23.3661 26.336 23.2242 26.2273C23.0824 26.1186 22.9803 25.9662 22.934 25.7936C22.8877 25.6209 22.8996 25.4378 22.968 25.2727C23.0364 25.1076 23.1573 24.9697 23.3121 24.8803L26.5523 23.0098C26.7386 22.9034 26.9595 22.875 27.1667 22.9311C27.3739 22.9871 27.5505 23.1229 27.6578 23.3088C27.7651 23.4946 27.7944 23.7155 27.7393 23.9229C27.6842 24.1303 27.5491 24.3075 27.3637 24.4156L24.1236 26.2861C24.0005 26.3572 23.8608 26.3947 23.7186 26.3946Z" fill="#2E2E2E"/>
<path d="M26.9541 26.3946C26.8119 26.3947 26.6723 26.3572 26.5491 26.2861L23.309 24.4156C23.1236 24.3075 22.9886 24.1303 22.9335 23.9229C22.8784 23.7155 22.9077 23.4946 23.015 23.3088C23.1223 23.1229 23.2988 22.9871 23.506 22.9311C23.7132 22.875 23.9341 22.9034 24.1205 23.0098L27.3606 24.8803C27.5154 24.9697 27.6364 25.1076 27.7048 25.2727C27.7731 25.4378 27.7851 25.6209 27.7388 25.7936C27.6924 25.9662 27.5904 26.1186 27.4485 26.2273C27.3066 26.336 27.1328 26.3948 26.9541 26.3946Z" fill="#2E2E2E"/>
<path d="M32.0028 27.33C31.7876 27.33 31.5812 27.2445 31.429 27.0924C31.2769 26.9402 31.1914 26.7338 31.1914 26.5186V22.7777C31.1914 22.6712 31.2124 22.5657 31.2532 22.4672C31.2939 22.3688 31.3537 22.2794 31.429 22.204C31.5044 22.1287 31.5938 22.0689 31.6923 22.0281C31.7907 21.9874 31.8962 21.9664 32.0028 21.9664C32.1093 21.9664 32.2148 21.9874 32.3133 22.0281C32.4117 22.0689 32.5012 22.1287 32.5765 22.204C32.6518 22.2794 32.7116 22.3688 32.7524 22.4672C32.7932 22.5657 32.8141 22.6712 32.8141 22.7777V26.5186C32.8142 26.7338 32.7287 26.9402 32.5765 27.0924C32.4244 27.2445 32.218 27.33 32.0028 27.33Z" fill="#2E2E2E"/>
<path d="M30.3866 26.3946C30.2079 26.3948 30.0341 26.336 29.8922 26.2273C29.7503 26.1186 29.6483 25.9661 29.602 25.7935C29.5556 25.6209 29.5676 25.4378 29.6359 25.2727C29.7043 25.1076 29.8253 24.9696 29.9801 24.8803L33.2202 23.0098C33.4065 22.9046 33.6268 22.8771 33.8332 22.9335C34.0396 22.9898 34.2155 23.1254 34.3224 23.3107C34.4294 23.496 34.4588 23.7161 34.4044 23.923C34.3499 24.1299 34.2159 24.3069 34.0316 24.4156L30.7915 26.286C30.6684 26.3572 30.5288 26.3946 30.3866 26.3946Z" fill="#2E2E2E"/>
<path d="M33.6226 26.3946C33.4805 26.3946 33.3408 26.3572 33.2177 26.286L29.9776 24.4156C29.7933 24.3069 29.6593 24.1299 29.6049 23.923C29.5504 23.7161 29.5798 23.496 29.6868 23.3107C29.7938 23.1254 29.9696 22.9898 30.176 22.9335C30.3824 22.8771 30.6027 22.9046 30.789 23.0098L34.0291 24.8803C34.1839 24.9696 34.3049 25.1076 34.3733 25.2727C34.4416 25.4378 34.4536 25.6209 34.4073 25.7935C34.3609 25.9662 34.2589 26.1186 34.117 26.2273C33.9751 26.336 33.8013 26.3948 33.6226 26.3946Z" fill="#2E2E2E"/>
<path d="M26.8838 19.1912H17.1197C16.5713 19.1906 16.0454 18.9725 15.6576 18.5847C15.2697 18.1969 15.0515 17.6711 15.0508 17.1226V10.9942C15.0515 10.4457 15.2697 9.91988 15.6576 9.53209C16.0454 9.1443 16.5713 8.92618 17.1197 8.9256H26.8838C27.4322 8.9262 27.958 9.14434 28.3458 9.53214C28.7336 9.91994 28.9517 10.4457 28.9523 10.9942V17.1226C28.9517 17.671 28.7336 18.1968 28.3458 18.5846C27.958 18.9724 27.4322 19.1906 26.8838 19.1912ZM17.1197 10.5485C17.002 10.55 16.8895 10.5974 16.8061 10.6806C16.7228 10.7639 16.6753 10.8764 16.6736 10.9942V17.1226C16.6753 17.2404 16.7228 17.3529 16.8061 17.4361C16.8895 17.5194 17.002 17.5668 17.1197 17.5683H26.8838C27.0015 17.5668 27.114 17.5193 27.1972 17.4361C27.2805 17.3528 27.328 17.2403 27.3295 17.1226V10.9942C27.328 10.8764 27.2805 10.7639 27.1972 10.6807C27.114 10.5974 27.0015 10.55 26.8838 10.5485H17.1197Z" fill="#2E2E2E"/>
<path d="M26.216 10.5472C26.0008 10.5472 25.7945 10.4617 25.6423 10.3096C25.4901 10.1574 25.4046 9.95104 25.4046 9.73585V8.29806C25.4046 7.40288 25.049 6.54438 24.416 5.91139C23.783 5.27841 22.9245 4.9228 22.0294 4.9228C21.1342 4.9228 20.2757 5.27841 19.6427 5.91139C19.0097 6.54438 18.6541 7.40288 18.6541 8.29806V9.73585C18.6541 9.95106 18.5686 10.1575 18.4164 10.3096C18.2643 10.4618 18.0579 10.5473 17.8427 10.5473C17.6275 10.5473 17.4211 10.4618 17.2689 10.3096C17.1167 10.1575 17.0312 9.95106 17.0312 9.73585V8.29806C17.0312 6.97249 17.5578 5.70121 18.4952 4.76389C19.4325 3.82657 20.7037 3.29999 22.0293 3.29999C23.3549 3.29999 24.6262 3.82657 25.5635 4.76389C26.5008 5.70121 27.0274 6.97249 27.0274 8.29806V9.73585C27.0274 9.95104 26.9419 10.1574 26.7897 10.3096C26.6376 10.4617 26.4312 10.5472 26.216 10.5472Z" fill="#2E2E2E"/>
<path d="M21.9989 15.6983C21.7837 15.6983 21.5773 15.6128 21.4251 15.4606C21.273 15.3085 21.1875 15.1021 21.1875 14.8869V13.2799C21.1875 13.0647 21.273 12.8583 21.4251 12.7061C21.5773 12.554 21.7837 12.4685 21.9989 12.4685C22.2141 12.4685 22.4204 12.554 22.5726 12.7061C22.7248 12.8583 22.8103 13.0647 22.8103 13.2799V14.8869C22.8103 15.1021 22.7248 15.3085 22.5726 15.4606C22.4204 15.6128 22.2141 15.6983 21.9989 15.6983Z" fill="#2E2E2E"/>
<path d="M39.7912 31.548H4.2059C3.9907 31.548 3.78434 31.4625 3.63217 31.3103C3.48001 31.1581 3.39452 30.9517 3.39453 30.7365V11.7379C3.39532 11.1167 3.64245 10.5212 4.08171 10.082C4.52098 9.64285 5.11651 9.39582 5.73767 9.39514H13.2215C13.4367 9.39514 13.6431 9.48064 13.7953 9.63282C13.9475 9.78499 14.033 9.99137 14.033 10.2066C14.033 10.4218 13.9475 10.6282 13.7953 10.7803C13.6431 10.9325 13.4367 11.018 13.2215 11.018H5.73767C5.54676 11.0182 5.36372 11.0941 5.22869 11.229C5.09366 11.364 5.01768 11.547 5.01739 11.7379V29.9251H38.9798V11.7379C38.9797 11.5471 38.9038 11.3641 38.7689 11.2291C38.634 11.0941 38.451 11.0182 38.2602 11.018H30.7764C30.5611 11.018 30.3548 10.9325 30.2026 10.7803C30.0504 10.6282 29.9649 10.4218 29.9649 10.2066C29.9649 9.99137 30.0504 9.78499 30.2026 9.63282C30.3548 9.48064 30.5611 9.39514 30.7764 9.39514H38.2602C38.8813 9.39592 39.4766 9.64301 39.9158 10.0822C40.3549 10.5214 40.6019 11.1168 40.6025 11.7379V30.7365C40.6026 30.8431 40.5816 30.9486 40.5408 31.0471C40.5001 31.1455 40.4403 31.235 40.365 31.3104C40.2896 31.3857 40.2002 31.4455 40.1017 31.4863C40.0033 31.527 39.8977 31.548 39.7912 31.548Z" fill="#2E2E2E"/>
<path d="M40.8801 40.6238H3.12298C2.58706 40.6232 2.07326 40.41 1.69431 40.0311C1.31536 39.6521 1.1022 39.1383 1.10156 38.6024V38.0937C1.10106 37.3094 1.23671 36.5311 1.50248 35.7933L3.44511 30.3884C3.50158 30.2311 3.60521 30.0952 3.74185 29.9991C3.87849 29.903 4.04148 29.8514 4.20852 29.8515H39.7938C39.9609 29.8514 40.1239 29.903 40.2606 29.9991C40.3974 30.0952 40.5011 30.2311 40.5577 30.3884L42.5006 35.7933C42.7663 36.5311 42.9019 37.3095 42.9016 38.0937V38.6024C42.901 39.1384 42.6878 39.6522 42.3089 40.0311C41.9299 40.4101 41.4161 40.6233 40.8801 40.6238ZM4.77913 31.4743L3.02952 36.3425C2.82729 36.9042 2.72406 37.4967 2.72442 38.0937V38.6024C2.72452 38.7081 2.76653 38.8094 2.84126 38.8841C2.91598 38.9589 3.0173 39.0009 3.12298 39.001H40.8801C40.9858 39.0008 41.0871 38.9588 41.1618 38.8841C41.2365 38.8093 41.2786 38.7081 41.2787 38.6024V38.0937C41.2789 37.4966 41.1754 36.9041 40.9729 36.3425L39.2233 31.4743H4.77913Z" fill="#2E2E2E"/>
<path d="M22.9414 37.5746H21.0614C20.8462 37.5746 20.6398 37.4891 20.4877 37.3369C20.3355 37.1847 20.25 36.9783 20.25 36.7631C20.25 36.5479 20.3355 36.3415 20.4877 36.1893C20.6398 36.0372 20.8462 35.9517 21.0614 35.9517H22.9414C23.1566 35.9517 23.363 36.0372 23.5152 36.1893C23.6674 36.3415 23.7528 36.5479 23.7528 36.7631C23.7528 36.9783 23.6674 37.1847 23.5152 37.3369C23.363 37.4891 23.1566 37.5746 22.9414 37.5746Z" fill="#2E2E2E"/>
<path d="M36.8115 34.6681H7.19034C6.97513 34.6681 6.76875 34.5826 6.61658 34.4304C6.46441 34.2782 6.37891 34.0718 6.37891 33.8566C6.37891 33.6414 6.46441 33.435 6.61658 33.2829C6.76875 33.1307 6.97513 33.0452 7.19034 33.0452H36.8115C37.0267 33.0452 37.2331 33.1307 37.3853 33.2829C37.5375 33.435 37.623 33.6414 37.623 33.8566C37.623 34.0718 37.5375 34.2782 37.3853 34.4304C37.2331 34.5826 37.0267 34.6681 36.8115 34.6681Z" fill="#2E2E2E"/>
</svg>
