<svg width="40" height="39" viewBox="0 0 40 39" fill="none" xmlns="http://www.w3.org/2000/svg">
<path d="M10.29 28.3713C10.1212 28.3714 9.95622 28.3214 9.81579 28.2278C9.67536 28.1342 9.56581 28.0011 9.50096 27.8452C8.36824 25.1175 7.78516 22.193 7.78516 19.2395C7.78516 16.2859 8.36824 13.3614 9.50096 10.6337C9.54518 10.5275 9.61037 10.4314 9.69262 10.351C9.77488 10.2706 9.87251 10.2077 9.97966 10.1659C10.0868 10.1242 10.2013 10.1045 10.3163 10.108C10.4312 10.1115 10.5443 10.1382 10.6487 10.1865C13.3435 11.4212 16.2728 12.0602 19.237 12.0601C22.2012 12.0601 25.1305 11.4209 27.8252 10.1861C27.9273 10.1387 28.0377 10.1119 28.1501 10.1072C28.2625 10.1026 28.3747 10.1202 28.4803 10.159C28.5859 10.1979 28.6828 10.2571 28.7654 10.3335C28.8481 10.4099 28.9148 10.5018 28.9619 10.604C29.0089 10.7062 29.0353 10.8167 29.0395 10.9291C29.0438 11.0415 29.0258 11.1537 28.9866 11.2592C28.9474 11.3646 28.8877 11.4613 28.8111 11.5437C28.7344 11.626 28.6423 11.6924 28.5399 11.7391C25.7592 13.0134 22.7464 13.7031 19.6883 13.7655C16.6302 13.8279 13.5918 13.2617 10.7614 12.102C9.07297 16.711 9.07313 21.7693 10.7618 26.3782C13.4487 25.2733 16.327 24.7088 19.2322 24.717C19.4587 24.7163 19.6763 24.8054 19.8372 24.965C19.998 25.1245 20.089 25.3414 20.0901 25.5679C20.0912 25.7945 20.0023 26.0122 19.843 26.1733C19.6837 26.3344 19.467 26.4256 19.2404 26.4271C16.2745 26.4168 13.3421 27.0535 10.6474 28.2928C10.5354 28.3445 10.4134 28.3713 10.29 28.3713Z" fill="#2E2E2E"/>
<path d="M37.5186 18.1492C37.3075 18.1489 37.1039 18.0705 36.9471 17.9292C36.7902 17.7878 36.6912 17.5935 36.669 17.3835C36.3446 14.2697 35.1854 11.3013 33.3137 8.79175C32.0655 9.80141 30.7115 10.6728 29.2754 11.3905C29.6563 12.4072 29.9624 13.4504 30.1913 14.5117C30.2149 14.6214 30.2167 14.7348 30.1965 14.8452C30.1764 14.9556 30.1346 15.061 30.0737 15.1554C30.0128 15.2497 29.934 15.3311 29.8416 15.3949C29.7492 15.4588 29.6452 15.5038 29.5355 15.5274C29.4257 15.5511 29.3124 15.5528 29.2019 15.5327C29.0915 15.5125 28.9861 15.4708 28.8918 15.4099C28.7974 15.349 28.716 15.2701 28.6522 15.1777C28.5884 15.0854 28.5433 14.9814 28.5197 14.8716C28.2552 13.6467 27.8797 12.4484 27.3979 11.2916C27.3124 11.0867 27.31 10.8566 27.3912 10.6499C27.4724 10.4433 27.6308 10.2763 27.8329 10.1844C29.6646 9.35122 31.3638 8.25304 32.8758 6.92518C32.9611 6.84859 33.0613 6.79045 33.1702 6.75438C33.279 6.71831 33.3941 6.70511 33.5083 6.71558C33.6224 6.72471 33.7336 6.75668 33.8351 6.8096C33.9367 6.86252 34.0265 6.93531 34.0994 7.02365C36.4947 9.92266 37.9803 13.4646 38.3699 17.2049C38.3934 17.4304 38.3265 17.656 38.1838 17.8322C38.0411 18.0084 37.8343 18.1208 37.6088 18.1446C37.5787 18.1475 37.5482 18.1492 37.5186 18.1492Z" fill="#2E2E2E"/>
<path d="M5.0413 31.7763C5.01831 31.7763 4.99533 31.7755 4.97201 31.7733C4.85785 31.7641 4.74671 31.7321 4.64521 31.679C4.54371 31.6259 4.45393 31.553 4.38123 31.4645C1.55097 28.0202 0.00382678 23.7004 0.00390625 19.2425C0.00398572 14.7846 1.55128 10.4648 4.38167 7.0207C4.45461 6.9325 4.54451 6.85982 4.64603 6.80698C4.74756 6.75414 4.85866 6.7222 4.97275 6.71306C5.08684 6.70392 5.20161 6.71775 5.31026 6.75375C5.41891 6.78976 5.51923 6.8472 5.60528 6.92266C7.11745 8.25035 8.81688 9.34816 10.6489 10.1807C10.8511 10.2726 11.0096 10.4394 11.091 10.6461C11.1723 10.8527 11.1701 11.0829 11.0848 11.2879C10.0389 13.8081 9.50051 16.5099 9.50044 19.2386C9.50036 21.9672 10.0386 24.669 11.0843 27.1893C11.1701 27.3946 11.1724 27.6253 11.0908 27.8323C11.0092 28.0393 10.85 28.2063 10.6473 28.2978C8.81449 29.1314 7.11538 30.2321 5.60528 31.5638C5.44926 31.7007 5.24883 31.7762 5.0413 31.7763ZM5.16778 8.78923C2.92478 11.8129 1.71386 15.4779 1.71394 19.2427C1.71402 23.0074 2.92509 26.6724 5.16821 29.6959C6.4152 28.683 7.76903 27.8091 9.20565 27.09C7.31821 22.0258 7.31867 16.4511 9.20695 11.3873C7.77055 10.6699 6.41623 9.79879 5.16778 8.78923Z" fill="#2E2E2E"/>
<path d="M10.2966 11.8144C10.1747 11.8144 10.0541 11.7883 9.94303 11.738C7.95818 10.8358 6.11696 9.64624 4.47859 8.20768C4.31172 8.06137 4.20834 7.85584 4.19032 7.63464C4.17231 7.41344 4.24107 7.19391 4.38207 7.02252C6.15326 4.861 8.37573 3.11297 10.8937 1.90096C13.4117 0.688939 16.1643 0.0422658 18.9586 0.00623868C19.1464 0.00219497 19.3301 0.0607566 19.4809 0.172717C19.6317 0.284678 19.741 0.443664 19.7914 0.624579C19.8432 0.804738 19.8344 0.996915 19.7664 1.17159C19.6984 1.34627 19.5748 1.49377 19.4148 1.59142C15.6905 3.87026 12.7768 7.26238 11.086 11.288C11.0212 11.4439 10.9116 11.5771 10.7711 11.6708C10.6306 11.7645 10.4655 11.8144 10.2966 11.8144ZM6.25497 7.46841C7.37486 8.37255 8.58682 9.1563 9.8708 9.80669C11.2744 6.80927 13.3199 4.15714 15.8625 2.03818C12.157 2.76144 8.78584 4.66682 6.25497 7.46841Z" fill="#2E2E2E"/>
<path d="M28.1928 11.8142C28.0239 11.8143 27.8587 11.7644 27.7182 11.6707C27.5777 11.577 27.4681 11.4438 27.4033 11.2878C25.7129 7.26183 22.799 3.86954 19.074 1.59128C18.914 1.49366 18.7904 1.34617 18.7224 1.17149C18.6544 0.996804 18.6456 0.804601 18.6974 0.624444C18.7529 0.446467 18.8635 0.290687 19.0132 0.179564C19.1629 0.0684411 19.344 0.0077153 19.5304 0.00610352C22.3249 0.042079 25.0778 0.688727 27.5962 1.90074C30.1145 3.11275 32.3373 4.86079 34.1089 7.02238C34.2498 7.1939 34.3185 7.41352 34.3004 7.63479C34.2824 7.85606 34.1789 8.06161 34.012 8.20798C32.3729 9.64613 30.5313 10.8355 28.5463 11.7379C28.4352 11.7882 28.3147 11.8142 28.1928 11.8142ZM22.6268 2.03804C25.1695 4.15695 27.2152 6.80908 28.6189 9.80656C29.9033 9.15617 31.1155 8.37227 32.2356 7.46784C29.7041 4.66654 26.3326 2.76138 22.6268 2.03804Z" fill="#2E2E2E"/>
<path d="M18.9536 38.4723H18.9406C16.151 38.4307 13.4038 37.7824 10.8899 36.5724C8.37602 35.3624 6.15563 33.6197 4.38293 31.4653C4.24152 31.2939 4.17241 31.0742 4.19027 30.8527C4.20812 30.6312 4.31153 30.4254 4.47858 30.2788C6.11558 28.8354 7.95766 27.6427 9.94465 26.7398C10.0489 26.6927 10.1614 26.667 10.2757 26.6643C10.39 26.6615 10.5037 26.6816 10.6101 26.7235C10.7165 26.7655 10.8134 26.8283 10.895 26.9083C10.9767 26.9883 11.0415 27.0839 11.0856 27.1894C12.7442 31.1878 15.621 34.5617 19.3072 36.8313C19.4882 36.9088 19.6369 37.0464 19.7282 37.2209C19.8195 37.3954 19.8478 37.5961 19.8082 37.789C19.7686 37.982 19.6637 38.1553 19.5111 38.2798C19.3585 38.4043 19.1676 38.4723 18.9707 38.4723C18.9636 38.472 18.9586 38.4723 18.9536 38.4723ZM6.25572 31.0166C8.78338 33.803 12.1407 35.7019 15.8311 36.4325C13.2925 34.3199 11.2561 31.6684 9.86992 28.6706C8.5857 29.3228 7.3742 30.1091 6.25572 31.0166Z" fill="#2E2E2E"/>
<path d="M19.5303 38.4706C19.3046 38.4705 19.0882 38.3811 18.9281 38.222C18.768 38.063 18.6773 37.8471 18.6758 37.6214C18.6743 37.3957 18.762 37.1786 18.9199 37.0173C19.0778 36.8561 19.293 36.7638 19.5186 36.7606C21.1922 36.7375 22.8538 36.474 24.4524 35.9783C24.669 35.9111 24.9034 35.9327 25.1041 36.0383C25.3047 36.1439 25.4552 36.3249 25.5224 36.5415C25.5896 36.758 25.568 36.9924 25.4624 37.1931C25.3568 37.3937 25.1758 37.5442 24.9592 37.6114C23.2042 38.1557 21.3801 38.4451 19.5428 38.4706H19.5303Z" fill="#2E2E2E"/>
<path d="M19.2412 0.00732422C14.1402 0.00732422 9.2481 2.03368 5.64114 5.64064C2.03418 9.2476 0.0078125 14.1397 0.0078125 19.2407C0.0078125 24.3417 2.03418 29.2338 5.64114 32.8408C9.2481 36.4477 14.1402 38.4741 19.2412 38.4741C23.223 38.4809 27.1068 37.2401 30.3471 34.9259L28.6204 34.0281C25.8208 35.82 22.5652 36.7697 19.2412 36.7641C15.8021 36.766 12.4385 35.756 9.56936 33.8598C6.70026 31.9635 4.45255 29.265 3.10629 26.1004C1.76003 22.9357 1.37474 19.4449 1.99841 16.0628C2.62209 12.6808 4.22717 9.55699 6.61366 7.0807C9.00015 4.60442 12.0626 2.88511 15.4193 2.13699C18.776 1.38887 22.2787 1.64503 25.4909 2.87354C28.703 4.10204 31.4827 6.24858 33.4836 9.04572C35.4844 11.8429 36.618 15.1669 36.743 18.6037L38.4697 19.151C38.4401 14.0682 36.4021 9.2033 32.8 5.6171C29.198 2.03091 24.3241 0.0144075 19.2412 0.00732422Z" fill="#2E2E2E"/>
<path d="M24.9805 20.0925H0.854964C0.628214 20.0925 0.410749 20.0024 0.250412 19.8421C0.0900757 19.6817 0 19.4643 0 19.2375C0 19.0108 0.0900757 18.7933 0.250412 18.633C0.410749 18.4726 0.628214 18.3826 0.854964 18.3826H24.9805C25.2073 18.3826 25.4247 18.4726 25.5851 18.633C25.7454 18.7933 25.8355 19.0108 25.8355 19.2375C25.8355 19.4643 25.7454 19.6817 25.5851 19.8421C25.4247 20.0024 25.2073 20.0925 24.9805 20.0925Z" fill="#2E2E2E"/>
<path d="M19.2378 38.4753C19.011 38.4752 18.7936 38.3852 18.6332 38.2248C18.4729 38.0645 18.3828 37.847 18.3828 37.6203V0.854968C18.3828 0.628218 18.4729 0.410745 18.6332 0.250408C18.7936 0.0900715 19.011 0 19.2378 0C19.4645 0 19.682 0.0900715 19.8423 0.250408C20.0027 0.410745 20.0927 0.628218 20.0927 0.854968V37.6203C20.0927 37.847 20.0026 38.0645 19.8423 38.2248C19.682 38.3852 19.4645 38.4752 19.2378 38.4753Z" fill="#2E2E2E"/>
<path d="M21.0416 26.4269H19.2339C19.0072 26.4269 18.7897 26.3369 18.6293 26.1765C18.469 26.0162 18.3789 25.7987 18.3789 25.5719C18.3789 25.3452 18.469 25.1277 18.6293 24.9673C18.7897 24.807 19.0072 24.7169 19.2339 24.7169H21.0416C21.2683 24.7169 21.4858 24.807 21.6462 24.9673C21.8065 25.1277 21.8966 25.3452 21.8966 25.5719C21.8966 25.7987 21.8065 26.0162 21.6462 26.1765C21.4858 26.3369 21.2683 26.4269 21.0416 26.4269Z" fill="#2E2E2E"/>
<path d="M31.7524 36.5113C31.6154 36.5113 31.4804 36.4783 31.3587 36.4154L26.2996 33.7923C25.439 33.3668 24.7185 32.7034 24.2233 31.8809C23.7282 31.0584 23.4792 30.1112 23.5058 29.1515L23.9021 19.2041C23.909 19.0282 23.9701 18.8586 24.077 18.7187C24.184 18.5788 24.3315 18.4754 24.4995 18.4226L31.4956 16.2187C31.6628 16.1661 31.842 16.1661 32.0092 16.2187L39.005 18.4226C39.173 18.4754 39.3206 18.5788 39.4275 18.7187C39.5345 18.8586 39.5955 19.0282 39.6024 19.2041L39.9977 29.149C40.0249 30.109 39.7762 31.0567 39.2811 31.8797C38.7861 32.7026 38.0655 33.3664 37.2047 33.7923L32.1461 36.4154C32.0244 36.4784 31.8894 36.5113 31.7524 36.5113ZM25.5866 19.873L25.2146 29.2167C25.2022 29.8519 25.3719 30.4775 25.7037 31.0193C26.0356 31.5611 26.5156 31.9966 27.087 32.2743L31.7524 34.6932L36.4174 32.2743C36.9891 31.9963 37.4692 31.5603 37.8008 31.018C38.1325 30.4757 38.3019 29.8498 38.2889 29.2142L37.9179 19.873L31.7524 17.9304L25.5866 19.873Z" fill="#2E2E2E"/>
<path d="M31.5004 29.5919C31.2968 29.592 31.0999 29.5193 30.9452 29.3869L27.6315 26.5548C27.4591 26.4074 27.3523 26.1976 27.3346 25.9715C27.3169 25.7453 27.3898 25.5214 27.5372 25.349C27.6846 25.1766 27.8944 25.0698 28.1205 25.0521C28.3466 25.0344 28.5705 25.1073 28.7429 25.2547L31.4228 27.5454L35.1938 23.3555C35.3455 23.1871 35.5579 23.0858 35.7843 23.0739C36.0107 23.0621 36.2325 23.1406 36.401 23.2922C36.5695 23.4439 36.6709 23.6563 36.6828 23.8826C36.6948 24.109 36.6163 24.3309 36.4647 24.4994L32.1362 29.3089C32.0561 29.3981 31.958 29.4694 31.8485 29.5182C31.7389 29.567 31.6203 29.5921 31.5004 29.5919Z" fill="#2E2E2E"/>
</svg>
