<svg width="44" height="44" viewBox="0 0 44 44" fill="none" xmlns="http://www.w3.org/2000/svg">
<path d="M25.0208 13.9408H16.0065C15.7727 13.9408 15.5485 13.8479 15.3832 13.6826C15.2178 13.5173 15.125 13.2931 15.125 13.0593C15.125 12.8255 15.2178 12.6013 15.3832 12.436C15.5485 12.2707 15.7727 12.1778 16.0065 12.1778H25.0208C25.2546 12.1778 25.4788 12.2707 25.6441 12.436C25.8095 12.6013 25.9023 12.8255 25.9023 13.0593C25.9023 13.2931 25.8095 13.5173 25.6441 13.6826C25.4788 13.8479 25.2546 13.9408 25.0208 13.9408Z" fill="#2E2E2E"/>
<path d="M27.49 9.49544H13.5338C13.3 9.49544 13.0758 9.40258 12.9105 9.23727C12.7452 9.07196 12.6523 8.84774 12.6523 8.61396C12.6523 8.38018 12.7452 8.15598 12.9105 7.99067C13.0758 7.82537 13.3 7.73248 13.5338 7.73248H27.49C27.7238 7.73248 27.948 7.82537 28.1133 7.99067C28.2786 8.15598 28.3715 8.38018 28.3715 8.61396C28.3715 8.84774 28.2786 9.07196 28.1133 9.23727C27.948 9.40258 27.7238 9.49544 27.49 9.49544Z" fill="#2E2E2E"/>
<path d="M27.6896 18.3859H11.3463C11.1125 18.3859 10.8883 18.2931 10.723 18.1278C10.5577 17.9624 10.4648 17.7382 10.4648 17.5045C10.4648 17.2707 10.5577 17.0465 10.723 16.8812C10.8883 16.7159 11.1125 16.623 11.3463 16.623H27.6896C27.9234 16.623 28.1476 16.7159 28.3129 16.8812C28.4782 17.0465 28.5711 17.2707 28.5711 17.5045C28.5711 17.7382 28.4782 17.9624 28.3129 18.1278C28.1476 18.2931 27.9234 18.3859 27.6896 18.3859Z" fill="#2E2E2E"/>
<path d="M22.3457 22.8311H11.3463C11.1125 22.8311 10.8883 22.7383 10.723 22.5729C10.5577 22.4076 10.4648 22.1834 10.4648 21.9497C10.4648 21.7159 10.5577 21.4917 10.723 21.3264C10.8883 21.161 11.1125 21.0682 11.3463 21.0682H22.3457C22.5795 21.0682 22.8037 21.161 22.969 21.3264C23.1343 21.4917 23.2272 21.7159 23.2272 21.9497C23.2272 22.1834 23.1343 22.4076 22.969 22.5729C22.8037 22.7383 22.5795 22.8311 22.3457 22.8311Z" fill="#2E2E2E"/>
<path d="M21.6036 27.2763H11.3463C11.1125 27.2763 10.8883 27.1835 10.723 27.0182C10.5577 26.8529 10.4648 26.6287 10.4648 26.3949C10.4648 26.1611 10.5577 25.9369 10.723 25.7716C10.8883 25.6063 11.1125 25.5135 11.3463 25.5135H21.6036C21.8373 25.5135 22.0615 25.6063 22.2268 25.7716C22.3921 25.9369 22.485 26.1611 22.485 26.3949C22.485 26.6287 22.3921 26.8529 22.2268 27.0182C22.0615 27.1835 21.8373 27.2763 21.6036 27.2763Z" fill="#2E2E2E"/>
<path d="M18.4575 31.7216H11.3463C11.1125 31.7216 10.8883 31.6288 10.723 31.4635C10.5577 31.2982 10.4648 31.0739 10.4648 30.8402C10.4648 30.6064 10.5577 30.3822 10.723 30.2169C10.8883 30.0515 11.1125 29.9587 11.3463 29.9587H18.4575C18.6912 29.9587 18.9154 30.0515 19.0807 30.2169C19.2461 30.3822 19.3389 30.6064 19.3389 30.8402C19.3389 31.0739 19.2461 31.2982 19.0807 31.4635C18.9154 31.6288 18.6912 31.7216 18.4575 31.7216Z" fill="#2E2E2E"/>
<path d="M18.4575 36.1668H11.3463C11.1125 36.1668 10.8883 36.074 10.723 35.9087C10.5577 35.7433 10.4648 35.5191 10.4648 35.2853C10.4648 35.0516 10.5577 34.8274 10.723 34.662C10.8883 34.4967 11.1125 34.4039 11.3463 34.4039H18.4575C18.6912 34.4039 18.9154 34.4967 19.0807 34.662C19.2461 34.8274 19.3389 35.0516 19.3389 35.2853C19.3389 35.5191 19.2461 35.7433 19.0807 35.9087C18.9154 36.074 18.6912 36.1668 18.4575 36.1668Z" fill="#2E2E2E"/>
<path d="M25.4203 40.1032H8.02592C6.95849 40.1019 5.93514 39.6773 5.18039 38.9225C4.42565 38.1676 4.00115 37.1442 4 36.0768V6.02638C4.00117 4.95896 4.42568 3.93558 5.18042 3.18075C5.93517 2.42593 6.9585 2.00129 8.02592 2H32.1407C33.2081 2.00129 34.2314 2.42593 34.9862 3.18075C35.7409 3.93558 36.1655 4.95896 36.1666 6.02638V21.0519C36.1666 21.2857 36.0738 21.5099 35.9084 21.6752C35.7431 21.8405 35.5189 21.9334 35.2852 21.9334C35.0514 21.9334 34.8271 21.8405 34.6618 21.6752C34.4965 21.5099 34.4037 21.2857 34.4037 21.0519V6.02638C34.4031 5.42633 34.1645 4.85101 33.7403 4.42667C33.316 4.00233 32.7408 3.76363 32.1407 3.76296H8.02592C7.42587 3.76363 6.8506 4.00233 6.42635 4.42667C6.00209 4.85101 5.76351 5.42633 5.76296 6.02638V36.0768C5.76351 36.6769 6.00206 37.2522 6.42631 37.6766C6.85057 38.1009 7.42586 38.3397 8.02592 38.3404H25.4203C25.6541 38.3404 25.8783 38.4332 26.0436 38.5985C26.2089 38.7638 26.3017 38.988 26.3017 39.2218C26.3017 39.4555 26.2089 39.6797 26.0436 39.845C25.8783 40.0103 25.6541 40.1032 25.4203 40.1032Z" fill="#2E2E2E"/>
<path d="M30.2407 42.5475C30.0983 42.5475 29.958 42.5129 29.8318 42.4468L24.4139 39.6108C23.1907 38.9891 22.1708 38.0305 21.4747 36.848C20.7786 35.6656 20.4353 34.3087 20.4852 32.9375L20.8795 22.1136C20.8865 21.9181 20.9584 21.7305 21.0839 21.5804C21.2094 21.4303 21.3812 21.3263 21.5724 21.2847L30.0531 19.4343C30.1768 19.4077 30.3047 19.4077 30.4284 19.4343L38.91 21.2847C39.1011 21.3263 39.273 21.4304 39.3985 21.5805C39.5239 21.7306 39.5959 21.9181 39.6029 22.1136L39.9971 32.94C40.0432 34.3088 39.6988 35.6624 39.0042 36.8428C38.3096 38.0231 37.2934 38.9814 36.0744 39.6056L30.6497 42.4468C30.5235 42.5129 30.3832 42.5475 30.2407 42.5475ZM22.6157 22.8612L22.2464 33.0033C22.2111 34.0416 22.4735 35.0684 23.0026 35.9626C23.5316 36.8567 24.3054 37.5809 25.2325 38.0498L30.2407 40.6709L35.2541 38.0455C36.178 37.5744 36.9488 36.8503 37.4768 35.9577C38.0048 35.065 38.2681 34.0407 38.236 33.0042L37.8667 22.8612L30.2407 21.1978L22.6157 22.8612Z" fill="#2E2E2E"/>
<path d="M30.2153 33.9606C29.9857 33.9605 29.7651 33.8708 29.6007 33.7105L25.9423 30.148C25.8594 30.0673 25.7932 29.9711 25.7475 29.8648C25.7017 29.7585 25.6774 29.6442 25.6759 29.5285C25.6743 29.4128 25.6955 29.2979 25.7384 29.1904C25.7812 29.0829 25.8448 28.9849 25.9255 28.902C26.0062 28.8191 26.1025 28.7529 26.2088 28.7072C26.3151 28.6614 26.4294 28.6371 26.5451 28.6355C26.6608 28.634 26.7757 28.6552 26.8832 28.6981C26.9907 28.7409 27.0886 28.8045 27.1715 28.8852L30.1758 31.8103L34.5495 26.9829C34.6273 26.8971 34.7211 26.8274 34.8257 26.7779C34.9304 26.7283 35.0437 26.6999 35.1594 26.6942C35.275 26.6885 35.3906 26.7056 35.4996 26.7445C35.6086 26.7835 35.7089 26.8436 35.7947 26.9213C35.8805 26.999 35.9501 27.0928 35.9997 27.1975C36.0492 27.3021 36.0777 27.4155 36.0834 27.5311C36.0891 27.6467 36.072 27.7623 36.033 27.8713C35.9941 27.9803 35.934 28.0806 35.8563 28.1664L30.8687 33.6709C30.7892 33.7587 30.6928 33.8295 30.5853 33.8792C30.4778 33.9289 30.3613 33.9564 30.2429 33.9601L30.2153 33.9606Z" fill="#2E2E2E"/>
</svg>
