<svg width="42" height="37" viewBox="0 0 42 37" fill="none" xmlns="http://www.w3.org/2000/svg">
<path d="M15.4976 16.4522H11.0465C10.8243 16.4522 10.6111 16.3639 10.4539 16.2068C10.2968 16.0496 10.2085 15.8365 10.2085 15.6142C10.2085 15.3919 10.2968 15.1788 10.4539 15.0216C10.6111 14.8645 10.8243 14.7762 11.0465 14.7762H15.4976C15.8309 14.7753 16.1502 14.6422 16.3854 14.4062C16.6207 14.1701 16.7527 13.8504 16.7525 13.5171V3.3346C16.7526 3.00141 16.6205 2.68178 16.3853 2.44582C16.15 2.20987 15.8308 2.07685 15.4976 2.07595H3.09485C2.76116 2.07636 2.44125 2.2091 2.2053 2.44505C1.96934 2.68101 1.8366 3.00091 1.83619 3.3346V13.5171C1.83649 13.8509 1.96918 14.1709 2.20515 14.4069C2.44111 14.643 2.76108 14.7758 3.09485 14.7762H7.16742C7.38968 14.7762 7.60282 14.8645 7.75998 15.0216C7.91714 15.1788 8.00544 15.3919 8.00544 15.6142C8.00544 15.8365 7.91714 16.0496 7.75998 16.2068C7.60282 16.3639 7.38968 16.4522 7.16742 16.4522H3.09485C2.31673 16.4513 1.57075 16.1417 1.02058 15.5915C0.470413 15.0412 0.160976 14.2952 0.160156 13.5171V3.3346C0.161013 2.55655 0.470479 1.81061 1.02066 1.26045C1.57083 0.710294 2.31679 0.400852 3.09485 0.400024H15.4976C16.2752 0.401345 17.0204 0.711064 17.5699 1.26122C18.1194 1.81138 18.4282 2.55704 18.4286 3.3346V13.5171C18.4282 14.2947 18.1195 15.0405 17.57 15.5907C17.0205 16.141 16.2752 16.4508 15.4976 16.4522Z" fill="#2E2E2E"/>
<path d="M10.3059 20.713C10.1746 20.7131 10.045 20.6822 9.92782 20.623C9.81059 20.5637 9.70895 20.4776 9.63113 20.3718L6.49517 16.111C6.42994 16.0224 6.3828 15.9218 6.35644 15.8149C6.33007 15.7081 6.32501 15.5971 6.34154 15.4884C6.35806 15.3796 6.39586 15.2751 6.45276 15.1809C6.50966 15.0867 6.58456 15.0047 6.67317 14.9395C6.76178 14.8742 6.86237 14.8271 6.9692 14.8007C7.07603 14.7744 7.18701 14.7693 7.29579 14.7858C7.40458 14.8023 7.50905 14.8401 7.60323 14.897C7.69741 14.9539 7.77945 15.0288 7.84468 15.1174L9.81734 17.7976L10.2232 15.4702C10.2421 15.3618 10.2822 15.2581 10.3412 15.1652C10.4001 15.0723 10.4768 14.9918 10.5669 14.9285C10.6569 14.8652 10.7586 14.8203 10.866 14.7963C10.9734 14.7722 11.0845 14.7696 11.193 14.7885C11.3014 14.8074 11.4051 14.8475 11.498 14.9065C11.5909 14.9655 11.6714 15.0422 11.7347 15.1322C11.798 15.2223 11.8429 15.3239 11.8669 15.4313C11.8909 15.5388 11.8936 15.6499 11.8747 15.7583L11.1316 20.0191C11.1033 20.1809 11.0282 20.3307 10.9155 20.4502C10.8029 20.5696 10.6576 20.6533 10.4978 20.6909C10.4349 20.7056 10.3705 20.713 10.3059 20.713Z" fill="#2E2E2E"/>
<path d="M33.4692 10.0571H25.881C25.6587 10.0571 25.4456 9.96884 25.2884 9.81168C25.1313 9.65453 25.043 9.44137 25.043 9.21912C25.043 8.99686 25.1313 8.78371 25.2884 8.62655C25.4456 8.46939 25.6587 8.3811 25.881 8.3811H33.4692C33.6915 8.3811 33.9046 8.46939 34.0618 8.62655C34.2189 8.78371 34.3072 8.99686 34.3072 9.21912C34.3072 9.44137 34.2189 9.65453 34.0618 9.81168C33.9046 9.96884 33.6915 10.0571 33.4692 10.0571Z" fill="#2E2E2E"/>
<path d="M32.1292 13.5106H29.6349C29.4126 13.5106 29.1995 13.4223 29.0423 13.2652C28.8852 13.108 28.7969 12.8949 28.7969 12.6726C28.7969 12.4504 28.8852 12.2372 29.0423 12.08C29.1995 11.9229 29.4126 11.8346 29.6349 11.8346H32.1292C32.3515 11.8346 32.5646 11.9229 32.7218 12.08C32.879 12.2372 32.9672 12.4504 32.9672 12.6726C32.9672 12.8949 32.879 13.108 32.7218 13.2652C32.5646 13.4223 32.3515 13.5106 32.1292 13.5106Z" fill="#2E2E2E"/>
<path d="M33.5229 16.9645H25.4318C25.2095 16.9645 24.9964 16.8762 24.8392 16.719C24.682 16.5619 24.5938 16.3487 24.5938 16.1265C24.5938 15.9042 24.682 15.6911 24.8392 15.5339C24.9964 15.3767 25.2095 15.2885 25.4318 15.2885H33.5229C33.7451 15.2885 33.9583 15.3767 34.1155 15.5339C34.2726 15.6911 34.3609 15.9042 34.3609 16.1265C34.3609 16.3487 34.2726 16.5619 34.1155 16.719C33.9583 16.8762 33.7451 16.9645 33.5229 16.9645Z" fill="#2E2E2E"/>
<path d="M32.1275 20.4181H29.3536C29.1314 20.4181 28.9182 20.3298 28.7611 20.1726C28.6039 20.0155 28.5156 19.8023 28.5156 19.5801C28.5156 19.3578 28.6039 19.1447 28.7611 18.9875C28.9182 18.8304 29.1314 18.7421 29.3536 18.7421H32.1275C32.3498 18.7421 32.5629 18.8304 32.7201 18.9875C32.8772 19.1447 32.9655 19.3578 32.9655 19.5801C32.9655 19.8023 32.8772 20.0155 32.7201 20.1726C32.5629 20.3298 32.3498 20.4181 32.1275 20.4181Z" fill="#2E2E2E"/>
<path d="M33.8215 23.872H24.8849C24.6626 23.872 24.4495 23.7837 24.2923 23.6265C24.1352 23.4693 24.0469 23.2562 24.0469 23.0339C24.0469 22.8117 24.1352 22.5985 24.2923 22.4414C24.4495 22.2842 24.6626 22.1959 24.8849 22.1959H33.8215C34.0437 22.1959 34.2569 22.2842 34.414 22.4414C34.5712 22.5985 34.6595 22.8117 34.6595 23.0339C34.6595 23.2562 34.5712 23.4693 34.414 23.6265C34.2569 23.7837 34.0437 23.872 33.8215 23.872Z" fill="#2E2E2E"/>
<path d="M38.7671 27.3705H3.22874C3.11631 27.3705 3.00503 27.3479 2.90153 27.304C2.79803 27.2601 2.70441 27.1958 2.62626 27.115C2.54811 27.0342 2.48701 26.9385 2.44661 26.8336C2.40621 26.7287 2.38733 26.6167 2.3911 26.5043L2.74793 15.875C2.75613 15.6533 2.85186 15.444 3.01413 15.2928C3.17641 15.1416 3.392 15.0609 3.61367 15.0684C3.83534 15.0758 4.045 15.1709 4.19673 15.3327C4.34845 15.4944 4.42986 15.7098 4.42311 15.9315L4.09542 25.6945H37.9004L37.2695 6.86762H17.8562C17.634 6.86762 17.4208 6.77933 17.2637 6.62217C17.1065 6.46502 17.0182 6.25186 17.0182 6.02961C17.0182 5.80735 17.1065 5.5942 17.2637 5.43704C17.4208 5.27988 17.634 5.19159 17.8562 5.19159H38.0797C38.297 5.19165 38.5058 5.27613 38.6621 5.42721C38.8184 5.57828 38.9098 5.78414 38.9172 6.00136L39.6046 26.5043C39.6084 26.6167 39.5896 26.7287 39.5492 26.8336C39.5088 26.9385 39.4477 27.0342 39.3695 27.115C39.2914 27.1958 39.1978 27.2601 39.0943 27.304C38.9908 27.3479 38.8795 27.3705 38.7671 27.3705Z" fill="#2E2E2E"/>
<path d="M39.8553 36.4342H2.14832C1.60572 36.4337 1.08549 36.2179 0.701776 35.8343C0.318062 35.4507 0.102204 34.9305 0.101563 34.3879V33.8801C0.10132 33.0938 0.237409 32.3134 0.503782 31.5735L2.44408 26.1756C2.50244 26.0132 2.6095 25.8729 2.75063 25.7736C2.89176 25.6744 3.06009 25.6212 3.23261 25.6212H38.771C38.9435 25.6212 39.1118 25.6744 39.2529 25.7737C39.3941 25.8729 39.5011 26.0132 39.5595 26.1756L41.4994 31.5735C41.7657 32.3134 41.9018 33.0938 41.9016 33.8801V34.3879C41.901 34.9304 41.6853 35.4506 41.3016 35.8343C40.918 36.2179 40.3978 36.4337 39.8553 36.4342ZM3.82178 27.2971L2.08073 32.1407C1.87987 32.6986 1.77731 33.2871 1.7776 33.8801V34.3879C1.77772 34.4861 1.81683 34.5803 1.88634 34.6497C1.95585 34.7192 2.05007 34.7582 2.14832 34.7582H39.8553C39.9534 34.7581 40.0475 34.719 40.117 34.6496C40.1864 34.5802 40.2254 34.4861 40.2255 34.3879V33.8801C40.2258 33.2871 40.1233 32.6986 39.9224 32.1407L38.1817 27.2971H3.82178Z" fill="#2E2E2E"/>
<path d="M21.942 33.3892H20.0646C19.8423 33.3892 19.6292 33.3009 19.472 33.1437C19.3148 32.9866 19.2266 32.7734 19.2266 32.5512C19.2266 32.3289 19.3148 32.1157 19.472 31.9586C19.6292 31.8014 19.8423 31.7131 20.0646 31.7131H21.942C22.1642 31.7131 22.3774 31.8014 22.5345 31.9586C22.6917 32.1157 22.78 32.3289 22.78 32.5512C22.78 32.7734 22.6917 32.9866 22.5345 33.1437C22.3774 33.3009 22.1642 33.3892 21.942 33.3892Z" fill="#2E2E2E"/>
<path d="M35.791 30.4864H6.20911C5.98686 30.4864 5.7737 30.3981 5.61654 30.2409C5.45938 30.0838 5.37109 29.8706 5.37109 29.6484C5.37109 29.4261 5.45938 29.213 5.61654 29.0558C5.7737 28.8987 5.98686 28.8104 6.20911 28.8104H35.791C36.0132 28.8104 36.2264 28.8987 36.3835 29.0558C36.5407 29.213 36.629 29.4261 36.629 29.6484C36.629 29.8706 36.5407 30.0838 36.3835 30.2409C36.2264 30.3981 36.0132 30.4864 35.791 30.4864Z" fill="#2E2E2E"/>
</svg>
