<svg width="20" height="22" viewBox="0 0 20 22" fill="none" xmlns="http://www.w3.org/2000/svg">
<path d="M4.83856 21C3.79864 21.0001 2.76223 20.5811 2.00651 19.7553C1.31458 18.9992 0.958518 18.019 1.00385 16.9951C1.04919 15.9712 1.49052 15.0263 2.24659 14.3344L12.4797 4.96938C12.945 4.54359 13.5484 4.32424 14.1783 4.35238C14.8084 4.38028 15.3898 4.65189 15.8156 5.11715C16.2414 5.58241 16.4605 6.1856 16.4326 6.81566C16.4047 7.44573 16.1331 8.02724 15.6678 8.45299L6.52335 16.8218L5.72631 15.9509L14.8709 7.58213C15.1035 7.36923 15.2393 7.0785 15.2532 6.76344C15.2672 6.44839 15.1576 6.1468 14.9447 5.91415C14.7318 5.6815 14.4411 5.54573 14.126 5.53176C13.8106 5.51771 13.5094 5.62739 13.2768 5.84024L3.04367 15.2054C2.52021 15.6844 2.21472 16.3385 2.18332 17.0474C2.15191 17.7562 2.39841 18.4348 2.87745 18.9583C3.35644 19.4817 4.01063 19.7872 4.71944 19.8186C5.42818 19.8501 6.10692 19.6035 6.63031 19.1245L17.2989 9.36085C18.1131 8.61571 18.5884 7.5981 18.6372 6.4955C18.686 5.39289 18.3026 4.33726 17.5575 3.52307C16.8123 2.70887 15.7947 2.23354 14.6921 2.1847C13.5893 2.13594 12.5338 2.51931 11.7197 3.26445L2.13971 12.0318L1.34267 11.1609L10.9226 2.39358C11.9695 1.43555 13.3269 0.942666 14.7443 1.00532C16.162 1.06812 17.4703 1.67922 18.4283 2.72603C20.406 4.88705 20.2569 8.2541 18.0959 10.2317L7.42727 19.9953C6.69233 20.6679 5.76405 20.9999 4.83856 21V21Z" fill="#FF558D" stroke="#FF558D" stroke-width="0.2"/>
</svg>
