<svg width="40" height="40" viewBox="0 0 40 40" fill="none" xmlns="http://www.w3.org/2000/svg">
<path fill-rule="evenodd" clip-rule="evenodd" d="M20.0003 6.66666C12.6403 6.66666 6.66699 12.64 6.66699 20C6.66699 27.36 12.6403 33.3333 20.0003 33.3333C27.3603 33.3333 33.3337 27.36 33.3337 20C33.3337 12.64 27.3603 6.66666 20.0003 6.66666ZM20.0003 30.6667C14.1203 30.6667 9.33366 25.88 9.33366 20C9.33366 14.12 14.1203 9.33332 20.0003 9.33332C25.8803 9.33332 30.667 14.12 30.667 20C30.667 25.88 25.8803 30.6667 20.0003 30.6667ZM17.3337 22.8933L26.1203 14.1067L28.0003 16L17.3337 26.6667L12.0003 21.3333L13.8803 19.4533L17.3337 22.8933Z" fill="#FF558D"/>
</svg>
